<svg xmlns="http://www.w3.org/2000/svg" viewBox="0 0 1280 853" role="img" aria-label="Property photo unavailable">
  <defs>
    <linearGradient id="sky" x1="0" y1="0" x2="1" y2="1">
      <stop offset="0" stop-color="#e5f4eb"/>
      <stop offset="1" stop-color="#f7faf8"/>
    </linearGradient>
    <linearGradient id="home" x1="0" y1="0" x2="0" y2="1">
      <stop offset="0" stop-color="#ffffff"/>
      <stop offset="1" stop-color="#e9f0ec"/>
    </linearGradient>
  </defs>
  <rect width="1280" height="853" fill="url(#sky)"/>
  <circle cx="1030" cy="160" r="74" fill="#f2a33a" opacity=".22"/>
  <path d="M0 650C180 570 340 630 520 574s344-22 480 34 216 35 280 7v238H0z" fill="#cce8d7"/>
  <path d="M318 444 640 205l322 239v269H318z" fill="url(#home)" stroke="#16784a" stroke-width="18" stroke-linejoin="round"/>
  <path d="m269 463 371-276 371 276" fill="none" stroke="#0d5c38" stroke-width="34" stroke-linecap="round" stroke-linejoin="round"/>
  <rect x="548" y="478" width="184" height="235" rx="14" fill="#16784a"/>
  <rect x="388" y="475" width="112" height="105" rx="12" fill="#b9ddc8" stroke="#16784a" stroke-width="12"/>
  <rect x="780" y="475" width="112" height="105" rx="12" fill="#b9ddc8" stroke="#16784a" stroke-width="12"/>
  <circle cx="693" cy="595" r="11" fill="#f2a33a"/>
  <text x="640" y="785" text-anchor="middle" font-family="Arial, sans-serif" font-size="32" font-weight="700" fill="#365244">Photo coming soon</text>
</svg>
